<mxfile host="65bd71144e" scale="10" border="0">
    <diagram id="YnQyo2uodswjvBjNdOXn" name="Page-1">
        <mxGraphModel dx="270" dy="126" grid="1" gridSize="10" guides="1" tooltips="1" connect="1" arrows="1" fold="1" page="1" pageScale="1" pageWidth="827" pageHeight="1169" math="0" shadow="0">
            <root>
                <mxCell id="0"/>
                <mxCell id="1" parent="0"/>
                <mxCell id="2" value="" style="endArrow=classic;html=1;" parent="1" edge="1">
                    <mxGeometry width="50" height="50" relative="1" as="geometry">
                        <mxPoint x="380" y="190" as="sourcePoint"/>
                        <mxPoint x="380" y="209.9999999999999" as="targetPoint"/>
                    </mxGeometry>
                </mxCell>
                <mxCell id="3" value="" style="endArrow=classic;html=1;" parent="1" edge="1">
                    <mxGeometry width="50" height="50" relative="1" as="geometry">
                        <mxPoint x="340" y="269.9999999999999" as="sourcePoint"/>
                        <mxPoint x="340" y="299.9999999999999" as="targetPoint"/>
                    </mxGeometry>
                </mxCell>
                <mxCell id="4" value="" style="triangle;whiteSpace=wrap;html=1;rotation=-90;" parent="1" vertex="1">
                    <mxGeometry x="350" y="200" width="60" height="80" as="geometry"/>
                </mxCell>
                <mxCell id="5" value="" style="endArrow=classic;html=1;exitX=0;exitY=0;exitDx=0;exitDy=0;" parent="1" source="9" edge="1">
                    <mxGeometry width="50" height="50" relative="1" as="geometry">
                        <mxPoint x="420" y="244.9999999999999" as="sourcePoint"/>
                        <mxPoint x="420" y="294.9999999999999" as="targetPoint"/>
                    </mxGeometry>
                </mxCell>
                <mxCell id="6" value="" style="triangle;whiteSpace=wrap;html=1;rotation=-90;" parent="1" vertex="1">
                    <mxGeometry x="390" y="285" width="60" height="80" as="geometry"/>
                </mxCell>
                <mxCell id="7" value="&lt;font style=&quot;font-size: 14px&quot;&gt;E&lt;/font&gt;" style="text;html=1;strokeColor=none;fillColor=none;align=center;verticalAlign=middle;whiteSpace=wrap;rounded=0;" parent="1" vertex="1">
                    <mxGeometry x="360" y="170" width="40" height="20" as="geometry"/>
                </mxCell>
                <mxCell id="8" value="&lt;font style=&quot;font-size: 14px&quot;&gt;W&lt;/font&gt;&lt;font style=&quot;font-size: 11.6667px&quot;&gt;&lt;sub&gt;1&lt;/sub&gt;&lt;/font&gt;" style="text;html=1;strokeColor=none;fillColor=none;align=center;verticalAlign=middle;whiteSpace=wrap;rounded=0;" parent="1" vertex="1">
                    <mxGeometry x="302.5" y="270" width="40" height="20" as="geometry"/>
                </mxCell>
                <mxCell id="9" value="&lt;font style=&quot;font-size: 14px&quot;&gt;P&lt;/font&gt;&lt;font style=&quot;font-size: 11.6667px&quot;&gt;&lt;sub&gt;1&lt;/sub&gt;&lt;/font&gt;" style="text;html=1;strokeColor=none;fillColor=none;align=center;verticalAlign=middle;whiteSpace=wrap;rounded=0;" parent="1" vertex="1">
                    <mxGeometry x="420" y="270" width="40" height="20" as="geometry"/>
                </mxCell>
                <mxCell id="18" value="" style="endArrow=classic;html=1;" parent="1" edge="1">
                    <mxGeometry width="50" height="50" relative="1" as="geometry">
                        <mxPoint x="380" y="355" as="sourcePoint"/>
                        <mxPoint x="380" y="385" as="targetPoint"/>
                        <Array as="points">
                            <mxPoint x="379.89" y="355"/>
                        </Array>
                    </mxGeometry>
                </mxCell>
                <mxCell id="19" value="" style="endArrow=classic;html=1;" parent="1" edge="1">
                    <mxGeometry width="50" height="50" relative="1" as="geometry">
                        <mxPoint x="460" y="354.65999999999997" as="sourcePoint"/>
                        <mxPoint x="460" y="385" as="targetPoint"/>
                    </mxGeometry>
                </mxCell>
                <mxCell id="21" value="&lt;font style=&quot;font-size: 14px&quot;&gt;P&lt;/font&gt;&lt;font style=&quot;font-size: 11.6667px&quot;&gt;&lt;sub&gt;2&lt;/sub&gt;&lt;/font&gt;" style="text;html=1;strokeColor=none;fillColor=none;align=center;verticalAlign=middle;whiteSpace=wrap;rounded=0;" parent="1" vertex="1">
                    <mxGeometry x="470" y="330" width="10" height="70" as="geometry"/>
                </mxCell>
                <mxCell id="31" value="" style="shape=cylinder3;whiteSpace=wrap;html=1;boundedLbl=1;backgroundOutline=1;size=6.854009416368285;" parent="1" vertex="1">
                    <mxGeometry x="367.5" y="385" width="25" height="45" as="geometry"/>
                </mxCell>
                <mxCell id="32" value="" style="shape=curlyBracket;whiteSpace=wrap;html=1;rounded=1;flipH=1;rotation=90;" parent="1" vertex="1">
                    <mxGeometry x="325" y="380" width="15" height="120" as="geometry"/>
                </mxCell>
                <mxCell id="33" value="" style="shape=cylinder3;whiteSpace=wrap;html=1;boundedLbl=1;backgroundOutline=1;size=6.854009416368285;" parent="1" vertex="1">
                    <mxGeometry x="275" y="385" width="25" height="45" as="geometry"/>
                </mxCell>
                <mxCell id="34" value="" style="shape=cylinder3;whiteSpace=wrap;html=1;boundedLbl=1;backgroundOutline=1;size=6.854009416368285;" parent="1" vertex="1">
                    <mxGeometry x="290" y="385" width="25" height="45" as="geometry"/>
                </mxCell>
                <mxCell id="35" value="" style="shape=cylinder3;whiteSpace=wrap;html=1;boundedLbl=1;backgroundOutline=1;size=6.854009416368285;" parent="1" vertex="1">
                    <mxGeometry x="307.5" y="385" width="25" height="45" as="geometry"/>
                </mxCell>
                <mxCell id="36" value="" style="shape=cylinder3;whiteSpace=wrap;html=1;boundedLbl=1;backgroundOutline=1;size=6.854009416368285;" parent="1" vertex="1">
                    <mxGeometry x="325" y="385" width="25" height="45" as="geometry"/>
                </mxCell>
                <mxCell id="47" value="" style="endArrow=classic;html=1;" parent="1" edge="1">
                    <mxGeometry width="50" height="50" relative="1" as="geometry">
                        <mxPoint x="245" y="275" as="sourcePoint"/>
                        <mxPoint x="245" y="294.9999999999999" as="targetPoint"/>
                    </mxGeometry>
                </mxCell>
                <mxCell id="48" value="" style="endArrow=classic;html=1;" parent="1" edge="1">
                    <mxGeometry width="50" height="50" relative="1" as="geometry">
                        <mxPoint x="205" y="354.9999999999999" as="sourcePoint"/>
                        <mxPoint x="205" y="384.9999999999999" as="targetPoint"/>
                    </mxGeometry>
                </mxCell>
                <mxCell id="49" value="" style="triangle;whiteSpace=wrap;html=1;rotation=-90;" parent="1" vertex="1">
                    <mxGeometry x="215" y="285" width="60" height="80" as="geometry"/>
                </mxCell>
                <mxCell id="50" value="&lt;font style=&quot;font-size: 14px&quot;&gt;F&lt;sub&gt;0&lt;/sub&gt;&lt;/font&gt;" style="text;html=1;strokeColor=none;fillColor=none;align=center;verticalAlign=middle;whiteSpace=wrap;rounded=0;" parent="1" vertex="1">
                    <mxGeometry x="225" y="255" width="40" height="20" as="geometry"/>
                </mxCell>
                <mxCell id="51" value="&lt;font style=&quot;font-size: 14px&quot;&gt;W&lt;/font&gt;&lt;font size=&quot;1&quot;&gt;0&lt;/font&gt;" style="text;html=1;strokeColor=none;fillColor=none;align=center;verticalAlign=middle;whiteSpace=wrap;rounded=0;" parent="1" vertex="1">
                    <mxGeometry x="165" y="355" width="40" height="20" as="geometry"/>
                </mxCell>
                <mxCell id="52" value="&lt;font style=&quot;font-size: 14px&quot;&gt;P&lt;/font&gt;&lt;font size=&quot;1&quot;&gt;0&lt;/font&gt;" style="text;html=1;strokeColor=none;fillColor=none;align=center;verticalAlign=middle;whiteSpace=wrap;rounded=0;" parent="1" vertex="1">
                    <mxGeometry x="285" y="360" width="25" height="15" as="geometry"/>
                </mxCell>
                <mxCell id="53" value="" style="endArrow=classic;html=1;" parent="1" edge="1">
                    <mxGeometry width="50" height="50" relative="1" as="geometry">
                        <mxPoint x="285" y="354.9999999999999" as="sourcePoint"/>
                        <mxPoint x="285" y="384.9999999999999" as="targetPoint"/>
                    </mxGeometry>
                </mxCell>
                <mxCell id="54" value="" style="shape=dataStorage;whiteSpace=wrap;html=1;fixedSize=1;size=10;strokeWidth=1;" parent="1" vertex="1">
                    <mxGeometry x="317.5" y="465" width="65" height="50" as="geometry"/>
                </mxCell>
                <mxCell id="55" value="" style="shape=cylinder3;whiteSpace=wrap;html=1;boundedLbl=1;backgroundOutline=1;size=0.1912849062964881;strokeWidth=1;" parent="1" vertex="1">
                    <mxGeometry x="282.5" y="475" width="65" height="40" as="geometry"/>
                </mxCell>
                <mxCell id="56" value="" style="shape=or;whiteSpace=wrap;html=1;rotation=-90;strokeWidth=1;" parent="1" vertex="1">
                    <mxGeometry x="302.5" y="430" width="25" height="65" as="geometry"/>
                </mxCell>
                <mxCell id="57" value="" style="ellipse;shape=cloud;whiteSpace=wrap;html=1;dashed=1;dashPattern=1 1;" parent="1" vertex="1">
                    <mxGeometry x="340" y="445" width="60" height="20" as="geometry"/>
                </mxCell>
                <mxCell id="58" value="&lt;font style=&quot;font-size: 14px&quot;&gt;W&lt;font style=&quot;font-size: 11.6667px;&quot;&gt;&lt;sub&gt;2&amp;nbsp;&lt;/sub&gt;&lt;/font&gt;= P&lt;/font&gt;" style="text;html=1;strokeColor=none;fillColor=none;align=center;verticalAlign=middle;whiteSpace=wrap;rounded=0;" vertex="1" parent="1">
                    <mxGeometry x="310.3" y="360" width="89.7" height="20" as="geometry"/>
                </mxCell>
            </root>
        </mxGraphModel>
    </diagram>
</mxfile>